# MagicaVoxel @ Ephtracy

# group
o 

# material
mtllib модели-15.mtl
usemtl palette

# normals
vn -1 0 0
vn 1 0 0
vn 0 0 1
vn 0 0 -1
vn 0 -1 0
vn 0 1 0

# texcoords
vt 0.974609 0.5
vt 0.982422 0.5
vt 0.990234 0.5

# verts
v -0.4 -0.05 0.4
v -0.4 -0.05 0.3
v -0.4 -0.05 -0.4
v -0.4 0.05 0.4
v -0.4 0.05 0.3
v -0.4 0.05 -0.4
v 0.4 -0.05 0.4
v 0.4 -0.05 -0.3
v 0.4 -0.05 -0.4
v 0.4 0.05 0.4
v 0.4 0.05 -0.3
v 0.4 0.05 -0.4
v -0.4 -0.05 0.4
v -0.4 0.05 0.4
v 0.4 -0.05 0.4
v 0.4 0.05 0.4
v -0.4 -0.05 -0.4
v -0.4 0.05 -0.4
v 0.4 -0.05 -0.4
v 0.4 0.05 -0.4
v -0.4 -0.05 0.4
v 0.4 -0.05 0.4
v -0.4 -0.05 0.3
v -0.3 -0.05 0.3
v 0.3 -0.05 0.3
v -0.3 -0.05 -0.3
v 0.3 -0.05 -0.3
v 0.4 -0.05 -0.3
v -0.4 -0.05 -0.4
v 0.4 -0.05 -0.4
v -0.4 0.05 0.4
v 0.4 0.05 0.4
v -0.4 0.05 0.3
v -0.3 0.05 0.3
v 0.3 0.05 0.3
v -0.3 0.05 -0.3
v 0.3 0.05 -0.3
v 0.4 0.05 -0.3
v -0.4 0.05 -0.4
v 0.4 0.05 -0.4

# faces
f 4/3/1 2/3/1 1/3/1
f 5/1/1 3/1/1 2/1/1
f 5/3/1 2/3/1 4/3/1
f 6/1/1 3/1/1 5/1/1
f 7/3/2 8/3/2 10/3/2
f 8/1/2 9/1/2 11/1/2
f 10/3/2 8/3/2 11/3/2
f 11/1/2 9/1/2 12/1/2
f 15/3/3 14/3/3 13/3/3
f 16/3/3 14/3/3 15/3/3
f 17/1/4 18/1/4 19/1/4
f 19/1/4 18/1/4 20/1/4
f 23/3/5 22/3/5 21/3/5
f 24/3/5 22/3/5 23/3/5
f 25/3/5 22/3/5 24/3/5
f 26/1/5 24/1/5 23/1/5
f 26/2/5 25/2/5 24/2/5
f 27/3/5 22/3/5 25/3/5
f 27/2/5 25/2/5 26/2/5
f 28/3/5 22/3/5 27/3/5
f 29/1/5 26/1/5 23/1/5
f 29/1/5 27/1/5 26/1/5
f 29/1/5 28/1/5 27/1/5
f 30/1/5 28/1/5 29/1/5
f 31/3/6 32/3/6 33/3/6
f 33/3/6 32/3/6 34/3/6
f 34/3/6 32/3/6 35/3/6
f 33/1/6 34/1/6 36/1/6
f 34/2/6 35/2/6 36/2/6
f 35/3/6 32/3/6 37/3/6
f 36/2/6 35/2/6 37/2/6
f 37/3/6 32/3/6 38/3/6
f 33/1/6 36/1/6 39/1/6
f 36/1/6 37/1/6 39/1/6
f 37/1/6 38/1/6 39/1/6
f 39/1/6 38/1/6 40/1/6
